<svg width="32" height="31" viewBox="0 0 32 31" fill="none" xmlns="http://www.w3.org/2000/svg">
<ellipse cx="15.8166" cy="15.125" rx="15.3166" ry="15" fill="#00A3FF"/>
<path d="M15.5494 7.7436C16.3687 7.7436 17.1575 7.86091 17.903 8.07809C18.0219 8.11297 18.1424 8.15102 18.2645 8.19224C18.3994 8.23821 18.5328 8.28735 18.6645 8.33967L18.1215 9.32414C17.323 9.02135 16.4571 8.85648 15.551 8.85648H15.5494C14.5597 8.85648 13.6167 9.05464 12.7588 9.41292C12.619 9.47158 12.4808 9.5334 12.3475 9.59999C11.6535 9.94241 11.0237 10.3926 10.4807 10.9285L10.4775 10.9316C10.2975 11.1092 10.1256 11.2978 9.96657 11.4944C9.80592 11.6926 9.6549 11.8987 9.51513 12.1127C8.79378 13.2161 8.37768 14.5271 8.37768 15.9333V15.9349C8.37768 16.9114 8.5785 17.842 8.94159 18.6885C9.00103 18.8265 9.06369 18.9628 9.13116 19.0944C9.47818 19.7776 9.93444 20.4007 10.4791 20.9365L10.4823 20.9397C10.6622 21.1172 10.8534 21.2868 11.0526 21.4454C11.2534 21.6039 11.4623 21.7529 11.6792 21.8908C12.7957 22.5979 14.1244 23.0085 15.5494 23.0085H15.551C16.5406 23.0085 17.4837 22.8103 18.3416 22.452C18.4813 22.3934 18.6195 22.3316 18.7529 22.265C19.4469 21.9226 20.0767 21.4723 20.6197 20.9365H20.6213L20.6261 20.9317C20.806 20.7542 20.9763 20.5671 21.137 20.3705C21.2977 20.1724 21.4487 19.9663 21.5884 19.7523C22.305 18.6521 22.7211 17.3426 22.7211 15.938L23.8473 15.7668C23.8489 15.8223 23.8489 15.8778 23.8489 15.9333V15.9349C23.8489 17.0652 23.6159 18.1432 23.1966 19.1213C23.1291 19.2799 23.0552 19.4368 22.9765 19.5922C22.5749 20.3848 22.0463 21.1045 21.4181 21.7244L21.4149 21.7276C21.2061 21.9336 20.9844 22.1302 20.7546 22.3125C20.5233 22.4964 20.2807 22.6692 20.0301 22.8278C18.7384 23.6474 17.2009 24.123 15.551 24.123C14.4055 24.123 13.313 23.8931 12.3218 23.4793C12.1611 23.4127 12.0021 23.3398 11.8446 23.2621C11.0414 22.8658 10.312 22.3442 9.68382 21.7244L9.68061 21.7196C9.47175 21.5135 9.27415 21.2964 9.08778 21.0681C8.90142 20.8398 8.72631 20.6004 8.56565 20.3531C7.73185 19.0785 7.24988 17.5614 7.24988 15.9333V15.9317C7.24988 14.8014 7.48283 13.7249 7.90214 12.7452C7.96962 12.5867 8.04352 12.4298 8.12224 12.2744C8.52388 11.4817 9.05244 10.762 9.68061 10.1422L9.68382 10.139C9.89267 9.9329 10.1144 9.73791 10.3441 9.55401C10.5755 9.37012 10.8181 9.19732 11.0687 9.03879C12.362 8.21919 13.8994 7.7436 15.5494 7.7436ZM16.2273 15.5639L21.4358 6.125L22.109 11.4849L26.9913 13.9247L16.2273 15.5639ZM15.5494 13.3413H15.551C15.6667 13.3413 15.7807 13.3492 15.8916 13.3635L15.2763 14.4796C15.1686 14.4986 15.0642 14.5303 14.9662 14.5715C14.9373 14.5842 14.9084 14.5969 14.8794 14.6111C14.7348 14.6825 14.6031 14.776 14.489 14.8886L14.4858 14.8917C14.4489 14.9282 14.4151 14.9662 14.3814 15.0059C14.3477 15.0471 14.3155 15.0899 14.2866 15.1359C14.1372 15.3657 14.0505 15.64 14.0505 15.9333V15.9349C14.0505 16.1394 14.0922 16.3328 14.1693 16.5103C14.1822 16.5404 14.195 16.569 14.2095 16.5959C14.2818 16.7386 14.3766 16.8686 14.4907 16.9812L14.4939 16.9843C14.5308 17.0208 14.5694 17.0557 14.6095 17.0874C14.6513 17.1207 14.6947 17.1524 14.7413 17.1809C14.9742 17.3283 15.2522 17.4139 15.5494 17.4139C15.7566 17.4139 15.9526 17.3727 16.1326 17.2982C16.1631 17.2855 16.1904 17.2729 16.2193 17.2586C16.3639 17.1873 16.4956 17.0937 16.6097 16.9812L16.6129 16.978C16.6338 16.9574 16.6531 16.9368 16.6708 16.9177C16.6884 16.8987 16.7061 16.8765 16.7238 16.8543L18.0749 16.6482C18.046 16.7497 18.0106 16.8496 17.9689 16.9447C17.948 16.9938 17.9239 17.0446 17.8998 17.0937C17.7729 17.3458 17.6058 17.5725 17.4066 17.7691L17.4017 17.7722C17.3359 17.8356 17.2684 17.8975 17.1961 17.9545C17.1222 18.0132 17.0467 18.0671 16.9664 18.1178C16.5567 18.3762 16.0715 18.5268 15.5494 18.5268C15.1863 18.5268 14.8409 18.4539 14.5276 18.3223C14.4778 18.3017 14.4264 18.2779 14.3766 18.2542C14.1211 18.1289 13.8914 17.964 13.6922 17.7675L13.6874 17.7627C13.6231 17.6993 13.5605 17.6311 13.5026 17.5598C13.4432 17.4869 13.3885 17.4124 13.3371 17.3331C13.0753 16.9304 12.9226 16.4501 12.9226 15.9349V15.9333C12.9226 15.575 12.9965 15.2342 13.1299 14.925C13.1508 14.8759 13.1749 14.8251 13.199 14.776C13.3259 14.5255 13.493 14.2972 13.6922 14.1022C13.7581 14.0373 13.8287 13.9754 13.9026 13.9168C13.9766 13.8581 14.0521 13.8042 14.1324 13.7535C14.5405 13.4919 15.0272 13.3413 15.5494 13.3413ZM15.5494 10.5195C16.041 10.5195 16.5165 10.5829 16.968 10.7034C17.0419 10.7224 17.1142 10.743 17.1865 10.7668C17.225 10.7795 17.2652 10.7921 17.3037 10.8048L16.7543 11.802C16.3719 11.6942 15.9671 11.6355 15.5478 11.6355C14.9469 11.6355 14.3734 11.756 13.8512 11.9732C13.7693 12.0081 13.6858 12.0461 13.6006 12.0873L13.5942 12.0905C13.1749 12.2982 12.7957 12.5708 12.4664 12.8958L12.4632 12.899C12.3539 13.0068 12.2511 13.1209 12.1531 13.2398C12.0551 13.3603 11.9635 13.4856 11.8784 13.6156C11.443 14.2846 11.1908 15.082 11.1908 15.9364V15.938C11.1908 16.5309 11.3129 17.0969 11.533 17.6121C11.5683 17.6961 11.6069 17.7786 11.6486 17.8594C11.8591 18.2748 12.137 18.6521 12.468 18.9786C12.5788 19.088 12.6961 19.1911 12.8166 19.2878C12.9387 19.3845 13.0656 19.4748 13.1974 19.5589C13.8753 19.9853 14.6834 20.2342 15.5494 20.2342H15.551C16.1518 20.2342 16.7254 20.1137 17.2475 19.8965C17.3327 19.8617 17.4162 19.8236 17.4981 19.7824C17.9191 19.5747 18.3014 19.3005 18.6324 18.9739C18.7432 18.8645 18.8493 18.7488 18.9456 18.6299C19.0436 18.5094 19.1352 18.3842 19.2204 18.2542C19.5818 17.6993 19.8164 17.0588 19.8871 16.3692L21.031 16.1948C20.9988 16.8464 20.851 17.4678 20.6068 18.0401C20.5618 18.1448 20.5137 18.2494 20.4606 18.3509C20.1956 18.8756 19.8453 19.3512 19.4308 19.7602L19.4276 19.7634C19.2895 19.8997 19.1433 20.0281 18.9922 20.1502C18.8396 20.2723 18.679 20.3864 18.5135 20.491C17.6588 21.0316 16.6418 21.3471 15.5526 21.3471C14.7959 21.3471 14.0729 21.1949 13.4175 20.9222C13.3114 20.8778 13.2054 20.8303 13.1026 20.778C12.5708 20.5164 12.0888 20.1708 11.6743 19.7618L11.6711 19.757C11.533 19.6207 11.4028 19.478 11.2807 19.3274C11.157 19.1768 11.0414 19.0183 10.9353 18.855C10.3859 18.0116 10.0678 17.0097 10.0678 15.9333V15.9317C10.0678 15.185 10.222 14.4716 10.5 13.8248C10.5449 13.7202 10.5931 13.6156 10.6461 13.5141C10.9112 12.9894 11.2615 12.5138 11.676 12.1048L11.6792 12.1016C11.8173 11.9653 11.9619 11.8368 12.1145 11.7164C12.2672 11.5943 12.4278 11.4802 12.5933 11.3755C13.4432 10.8334 14.4601 10.5195 15.5494 10.5195Z" fill="white"/>
</svg>
