<svg width="30" height="31" viewBox="0 0 30 31" fill="none" xmlns="http://www.w3.org/2000/svg">
<g id="Icon">
<circle id="Ellipse 3" cx="15" cy="15.375" r="15" fill="#FF947A"/>
<g id="Order Icon">
<path id="Union" fill-rule="evenodd" clip-rule="evenodd" d="M9 10.875C9 9.21815 10.3431 7.875 12 7.875H16.5V10.875C16.5 12.5319 17.8431 13.875 19.5 13.875H21V19.875C21 21.5319 19.6569 22.875 18 22.875H12C10.3431 22.875 9 21.5319 9 19.875V10.875ZM12 14.625C11.5858 14.625 11.25 14.9608 11.25 15.375C11.25 15.7892 11.5858 16.125 12 16.125H13.5C13.9142 16.125 14.25 15.7892 14.25 15.375C14.25 14.9608 13.9142 14.625 13.5 14.625H12ZM12 17.625C11.5858 17.625 11.25 17.9608 11.25 18.375C11.25 18.7892 11.5858 19.125 12 19.125H15C15.4142 19.125 15.75 18.7892 15.75 18.375C15.75 17.9608 15.4142 17.625 15 17.625H12ZM18.5113 9.52409L18.4131 10.9972C18.383 11.4499 18.7586 11.8256 19.2114 11.7954L20.6844 11.6972C21.3274 11.6543 21.6205 10.8741 21.1649 10.4185L19.79 9.04365C19.3344 8.58801 18.5542 8.88115 18.5113 9.52409Z" fill="white"/>
</g>
</g>
</svg>
