<svg width="31" height="31" viewBox="0 0 31 31" fill="none" xmlns="http://www.w3.org/2000/svg">
<circle cx="15.25" cy="15.625" r="15" fill="#FA5A7D"/>
<path fill-rule="evenodd" clip-rule="evenodd" d="M18.7196 10.574L16.2447 10.9275C15.8666 10.9816 15.5577 11.1618 15.3371 11.4109L9.56256 17.1854C8.97677 17.7712 8.97675 18.7209 9.56256 19.3067L11.6839 21.4281C12.2697 22.0139 13.2194 22.0139 13.8052 21.4281L19.5798 15.6535C19.8288 15.4329 20.0091 15.124 20.0631 14.7459L20.4166 12.271C20.5581 11.2811 19.7095 10.4325 18.7196 10.574ZM16.9872 14.0034C17.2801 14.2963 17.7549 14.2963 18.0478 14.0034C18.3407 13.7105 18.3407 13.2357 18.0478 12.9428C17.755 12.6499 17.2801 12.6499 16.9872 12.9428C16.6943 13.2357 16.6943 13.7106 16.9872 14.0034Z" fill="white"/>
</svg>
