<svg width="31" height="31" viewBox="0 0 31 31" fill="none" xmlns="http://www.w3.org/2000/svg">
<g id="Icon">
<ellipse id="Ellipse 3" cx="15.3833" cy="15.375" rx="15.3166" ry="15" fill="#00A3FF"/>
<g id="Sales Icon">
<g id="Group 916">
<path id="Subtract" fill-rule="evenodd" clip-rule="evenodd" d="M10.0224 8.625C9.17647 8.625 8.49072 9.29659 8.49072 10.125V20.625C8.49072 21.4534 9.17647 22.125 10.0224 22.125H20.744C21.5899 22.125 22.2757 21.4534 22.2757 20.625V10.125C22.2757 9.29659 21.5899 8.625 20.744 8.625H10.0224ZM12.3199 16.125C12.3199 15.7108 11.977 15.375 11.554 15.375C11.1311 15.375 10.7882 15.7108 10.7882 16.125V19.125C10.7882 19.5392 11.1311 19.875 11.554 19.875C11.977 19.875 12.3199 19.5392 12.3199 19.125V16.125ZM15.3832 13.125C15.8062 13.125 16.149 13.4608 16.149 13.875V19.125C16.149 19.5392 15.8062 19.875 15.3832 19.875C14.9602 19.875 14.6174 19.5392 14.6174 19.125V13.875C14.6174 13.4608 14.9602 13.125 15.3832 13.125ZM19.9782 11.625C19.9782 11.2108 19.6353 10.875 19.2123 10.875C18.7894 10.875 18.4465 11.2108 18.4465 11.625V19.125C18.4465 19.5392 18.7894 19.875 19.2123 19.875C19.6353 19.875 19.9782 19.5392 19.9782 19.125V11.625Z" fill="white"/>
</g>
</g>
</g>
</svg>
